<?xml version="1.0" encoding="UTF-8" standalone="no"?>
<svg
   xmlns:dc="http://purl.org/dc/elements/1.1/"
   xmlns:cc="http://creativecommons.org/ns#"
   xmlns:rdf="http://www.w3.org/1999/02/22-rdf-syntax-ns#"
   xmlns:svg="http://www.w3.org/2000/svg"
   xmlns="http://www.w3.org/2000/svg"
   xmlns:sodipodi="http://sodipodi.sourceforge.net/DTD/sodipodi-0.dtd"
   xmlns:inkscape="http://www.inkscape.org/namespaces/inkscape"
   viewBox="0 0 894 270"
   version="1.1"
   id="svg6"
   sodipodi:docname="site-logo.svg"
   inkscape:version="0.92.4 5da689c313, 2019-01-14">
  <metadata
     id="metadata12">
    <rdf:RDF>
      <cc:Work
         rdf:about="">
        <dc:format>image/svg+xml</dc:format>
        <dc:type
           rdf:resource="http://purl.org/dc/dcmitype/StillImage" />
      </cc:Work>
    </rdf:RDF>
  </metadata>
  <defs
     id="defs10">
    <inkscape:perspective
       id="perspective21"
       inkscape:persp3d-origin="54.134499 : 24.65949 : 1"
       inkscape:vp_z="108.269 : 36.989235 : 1"
       inkscape:vp_y="0 : 1000 : 0"
       inkscape:vp_x="0 : 36.989235 : 1"
       sodipodi:type="inkscape:persp3d" />
    <inkscape:perspective
       id="perspective21-6"
       inkscape:persp3d-origin="54.134499 : 24.65949 : 1"
       inkscape:vp_z="108.269 : 36.989235 : 1"
       inkscape:vp_y="0 : 1000 : 0"
       inkscape:vp_x="0 : 36.989235 : 1"
       sodipodi:type="inkscape:persp3d" />
  </defs>
  <sodipodi:namedview
     pagecolor="#ffffff"
     bordercolor="#666666"
     borderopacity="1"
     objecttolerance="10"
     gridtolerance="10"
     guidetolerance="10"
     inkscape:pageopacity="0"
     inkscape:pageshadow="2"
     inkscape:window-width="1276"
     inkscape:window-height="1397"
     id="namedview8"
     showgrid="false"
     inkscape:zoom="0.80089485"
     inkscape:cx="533.3468"
     inkscape:cy="67.813541"
     inkscape:window-x="1280"
     inkscape:window-y="20"
     inkscape:window-maximized="0"
     inkscape:current-layer="svg6" />
  <path
     style="fill:#3f179c;fill-opacity:1;fill-rule:nonzero;stroke:none;stroke-width:0.58265901"
     id="path15"
     d="M 253.49269,270.88621 H 894.3216 V 135.10105 H 253.49269 Z"
     inkscape:connector-curvature="0" />
  <path
     style="fill:none;stroke:#e80a00;stroke-width:20.70265388;stroke-linecap:butt;stroke-linejoin:round;stroke-miterlimit:10;stroke-dasharray:none;stroke-opacity:1"
     id="path19"
     d="m 621.13072,256.42662 264.11826,-118.62"
     inkscape:connector-curvature="0" />
  <path
     style="fill:#cfeeee;fill-opacity:1;fill-rule:nonzero;stroke:none;stroke-width:0.58265901"
     id="path15-3"
     d="M 253.49269,135.10105 H 894.3216 V -0.68411 H 253.49269 Z"
     inkscape:connector-curvature="0" />
  <path
     class="logo-sec"
     d="m 322.08,204.73 h -24.1 v -13 h 22.8 v -17.1 h -22.8 v -13.5 h 24.1 v -17.1 h -44.3 v 77.9 h 44.3 z m 44.6,-19.2 -24.9,36.3 h 24.9 l 11.9,-20.1 11.9,20.1 h 24.9 l -24.9,-36.3 28.8,-41.6 h -24.4 l -16.3,25.4 -17.9,-25.4 h -24.5 z m 67,-41.6 v 77.9 h 31 c 8.7,0 15.6,-2.1 20.7,-6.4 5.1,-4.2 7.6,-10.7 7.6,-19.3 0,-17.6 -9.2,-26.4 -27.6,-26.4 h -11.5 v -25.8 z m 20.3,61.6 v -19.4 h 3.4 c 1.9,0 3.4,0 4.4,0.1 1,0 2.3,0.2 3.8,0.6 1.5,0.3 2.7,0.8 3.5,1.4 0.8,0.6 1.4,1.5 2,2.8 0.6,1.2 0.9,2.8 0.9,4.6 0,1.9 -0.3,3.5 -0.8,4.8 -0.6,1.3 -1.2,2.3 -2,2.9 -0.8,0.7 -1.9,1.2 -3.4,1.5 -1.5,0.3 -2.8,0.5 -3.8,0.6 -1.1,0.1 -2.6,0.1 -4.6,0.1 z m 75.6,16.3 v -60.7 h 24.3 v -17.1 h -44.5 v 77.9 h 20.2 z m 56.5,-2.4 c 6.5,3.3 13.6,5 21.1,5 7.5,0 14.5,-1.7 21.1,-5 6.5,-3.3 11.8,-8.1 15.9,-14.3 4.1,-6.2 6.1,-13.1 6.1,-20.8 0,-12.6 -4,-22.9 -12.1,-30.9 -8.1,-8 -18.4,-12 -30.9,-12 -12.5,0 -22.8,4 -30.9,12 -8.1,8 -12.1,18.3 -12.1,30.9 0,7.6 2,14.6 6.1,20.8 3.8,6.2 9.1,10.9 15.7,14.3 z m 36.5,-20.8 c -4.3,4.1 -9.5,6.2 -15.5,6.2 -6,0 -11.2,-2.1 -15.5,-6.2 -4.3,-4.1 -6.5,-8.9 -6.5,-14.4 0,-6.6 2.1,-12.1 6.4,-16.6 4.3,-4.4 9.5,-6.7 15.6,-6.7 6.1,0 11.3,2.2 15.6,6.7 4.3,4.4 6.4,10 6.4,16.6 0.1,5.4 -2.1,10.2 -6.5,14.4 z m 86.3,-22.8 24.5,-31.9 h -25.2 l -19.1,30 h -0.2 v -30 h -20.2 v 77.9 h 30.3 c 8.1,0 14.7,-2 19.6,-6 5,-4 7.4,-10 7.4,-18 0,-5.6 -1.5,-10.4 -4.5,-14.5 -3.1,-4 -7.3,-6.5 -12.6,-7.5 z m -20.1,30.5 v -19.4 h 2 c 9.4,0 14,3.2 14,9.7 0,6.5 -4.7,9.7 -14,9.7 z m 103.1,-1.6 h -24.1 v -13 h 22.8 v -17.1 h -22.8 v -13.5 h 24.1 v -17.1 h -44.3 v 77.9 h 44.3 z m 61.8,-28.9 24.5,-31.9 h -25.2 l -19.1,30 h -0.2 v -30 h -20.3 v 77.9 h 30.3 c 8.1,0 14.7,-2 19.6,-6 5,-4 7.4,-10 7.4,-18 0,-5.6 -1.5,-10.4 -4.5,-14.5 -2.9,-4 -7.1,-6.5 -12.5,-7.5 z m -20,30.5 v -19.4 h 2 c 9.4,0 14,3.2 14,9.7 0,6.5 -4.7,9.7 -14,9.7 z"
     id="path4"
     style="fill:#cfeeee;fill-opacity:1"
     inkscape:connector-curvature="0"
     sodipodi:nodetypes="ccccccccccccccccccccccccccccscsscccccsccscsccscsccccccccccscsssssscccssscscccccccccccscsccccsssccccccccccccccccccccccscsccccsssc" />
  <path
     class="logo-pri"
     d="M337.38 51.43v24.4c-2.1-2.8-4.7-4.9-7.8-6.4-3.2-1.5-6.5-2.2-10-2.2-6.2 0-11.2 2.1-15.1 6.2-3.9 4.2-5.8 9.3-5.8 15.5s2 11.3 5.9 15.3 9 6 15.3 6c3.3 0 6.5-.7 9.7-2.2 3.1-1.5 5.7-3.5 7.9-6.1v24.4c-7.9 2.4-13.9 3.6-18 3.6-11.1 0-20.9-3.8-29.4-11.5-8.4-7.5-12.6-17.4-12.6-29.6 0-11.2 3.8-20.8 11.5-28.7 3.9-3.9 8.4-7 13.7-9.3 5.3-2.2 10.6-3.4 16.1-3.4 6 .1 12.2 1.4 18.6 4zm38.4.6c6.6-3.4 13.6-5 21.2-5 7.5 0 14.6 1.7 21.2 5 6.6 3.4 11.9 8.2 16 14.4s6.1 13.2 6.1 20.9c0 12.7-4.1 23-12.2 31.1s-18.5 12.1-31.1 12.1-23-4-31.1-12.1-12.2-18.4-12.2-31.1c0-7.7 2-14.6 6.1-20.9s9.4-11.1 16-14.4zm36.8 20.9c-4.4-4.2-9.6-6.2-15.6-6.2s-11.2 2.1-15.6 6.2c-4.4 4.2-6.5 9-6.5 14.4 0 6.6 2.1 12.2 6.4 16.7s9.5 6.7 15.7 6.7 11.4-2.2 15.7-6.7 6.4-10 6.4-16.7c0-5.4-2.1-10.2-6.5-14.4zm40.3 54.9l13.3-78.3h20l15.9 41.9 16.8-41.9h20.3l11.8 78.3h-20.4l-5.7-45.1h-.2l-18.8 45.1h-8.1l-18-45.1h-.2l-6.5 45.1zm115.8 0v-78.3h31.2c8.8 0 15.7 2.1 20.8 6.4s7.6 10.7 7.6 19.4c0 17.7-9.2 26.6-27.7 26.6h-11.5v26h-20.4zm20.4-61.9v19.5h3.4c1.9 0 3.4 0 4.4-.1 1 0 2.3-.2 3.8-.6 1.6-.3 2.7-.8 3.5-1.5.8-.6 1.4-1.6 2-2.8s.9-2.8.9-4.7-.3-3.5-.8-4.8c-.6-1.3-1.2-2.3-2-3s-1.9-1.2-3.4-1.5-2.8-.5-3.8-.6c-1.1-.1-2.6-.1-4.6-.1h-3.4zm76.3-16.4v78.3h-20.4v-78.3zm42.6 0v61.1h24.4v17.2h-44.8v-78.3zm83.8 17.3h-24.2v13.1h23v17.2h-23v13.5h24.2v17.2h-44.6v-78.3h44.6zm62.2 29l24.6 32.1h-25.3l-19.2-30.1h-.2v30.1h-20.5v-78.3h30.4c8.2 0 14.7 2 19.7 6s7.5 10 7.5 18.1c0 5.6-1.5 10.5-4.5 14.5-2.9 4.1-7.1 6.6-12.5 7.6zm-20.2-30.7v19.5h2c9.4 0 14.1-3.3 14.1-9.8s-4.7-9.8-14.1-9.8h-2zM228.18 192.43c-1.1-2.1-1.1-4.6 0-6.6 1.4-2.5 2.6-5 3.8-7.6.8-1.9-.5-4-2.6-4h-22.5c-2.3 0-4.5 1.2-5.7 3.1-2.9 4.4-6.3 8.7-10.1 12.5-14.5 14.5-33.7 22.4-54.1 22.4-20.5 0-39.7-8-54.1-22.4-14.6-14.4-22.5-33.6-22.5-54.1s8-39.7 22.4-54.1c14.5-14.5 33.7-22.4 54.1-22.4 20.5 0 39.7 8 54.1 22.4 3.9 3.9 7.2 8.1 10.1 12.5 1.3 1.9 3.4 3.1 5.7 3.1h22.6c2.1 0 3.4-2.1 2.6-4-1.2-2.6-2.4-5.1-3.8-7.6-1.1-2.1-1.1-4.6 0-6.6l7.6-13.8c1.5-2.7 1-6-1.2-8.2l-19.1-19.1c-2.2-2.2-5.5-2.6-8.2-1.2l-13.9 7.7c-2.1 1.1-4.6 1.1-6.6 0-6.6-3.6-13.6-6.5-20.8-8.6-2.3-.7-4.1-2.4-4.7-4.7l-4.4-15.2c-.9-2.9-3.5-5-6.6-5h-27c-3.1 0-5.8 2-6.6 5l-4.4 15.2c-.7 2.3-2.4 4-4.7 4.7-7.2 2.1-14.2 5-20.8 8.6-2.1 1.1-4.6 1.2-6.6 0l-13.9-7.7c-2.7-1.5-6-1-8.2 1.2l-19.1 19.1c-2.2 2.2-2.6 5.5-1.2 8.2l7.7 13.9c1.1 2.1 1.1 4.6 0 6.6-3.6 6.6-6.5 13.6-8.6 20.8-.7 2.3-2.4 4.1-4.7 4.7l-15.2 4.4c-2.9.9-5 3.5-5 6.6v27c0 3.1 2 5.8 5 6.6l15.2 4.4c2.3.7 4 2.4 4.7 4.7 2.1 7.2 5 14.2 8.6 20.8 1.1 2.1 1.2 4.6 0 6.6l-7.7 13.9c-1.5 2.7-1 6 1.2 8.2l19.1 19.1c2.2 2.2 5.5 2.6 8.2 1.2l13.9-7.7c2.1-1.1 4.6-1.1 6.6 0 6.6 3.6 13.6 6.5 20.8 8.6 2.3.7 4.1 2.4 4.7 4.7l4.4 15.2c.9 2.9 3.5 5 6.6 5h27c3.1 0 5.8-2 6.6-5l4.4-15.2c.7-2.3 2.4-4 4.7-4.7 7.2-2.1 14.2-5 20.8-8.6 2.1-1.1 4.6-1.2 6.6 0l13.9 7.7c2.7 1.5 6 1 8.2-1.2l19.1-19.1c2.2-2.2 2.6-5.5 1.2-8.2z"
     id="path2"
     fill="#67c52a"
     style="fill:#3f179c;fill-opacity:1" />
  <g
     id="g11"
     transform="matrix(1.25,0,0,-1.25,83.995601,175.22468)">
    <g
       id="g13"
       transform="scale(0.1)">
      <path
         style="fill:#3f179c;fill-opacity:1;fill-rule:nonzero;stroke:none"
         id="path15-7"
         d="m 3.71875,4.69922 h 866.152 v 295.918 H 3.71875 Z"
         inkscape:connector-curvature="0" />
      <path
         style="fill:#ffffff;fill-opacity:1;fill-rule:nonzero;stroke:none"
         id="path17-5"
         d="M 437.32,133.32 820.051,305.211"
         inkscape:connector-curvature="0" />
      <path
         style="fill:none;stroke:#e80a00;stroke-width:30;stroke-linecap:butt;stroke-linejoin:round;stroke-miterlimit:10;stroke-dasharray:none;stroke-opacity:1"
         id="path19-3"
         d="M 437.32,133.32 820.051,305.211"
         inkscape:connector-curvature="0" />
      <path
         style="fill:#cfeeee;fill-opacity:1;fill-rule:nonzero;stroke:none"
         id="path21-5"
         d="m 3.71875,300.609 h 866.152 V 596.527 H 3.71875 Z"
         inkscape:connector-curvature="0" />
      <path
         style="fill:#3f179c;fill-opacity:1;fill-rule:nonzero;stroke:none"
         id="path23-6"
         d="M 188.609,301.48 H 40.0391 v 5.668 c 11.5507,1.403 17.1992,3.5 21.4921,16.821 L 94.5781,428.84 c 0,0 2.6914,10.039 2.6914,13.082 0,7.476 -2.4179,7.707 -19.6093,9.816 v 5.672 h 85.1678 v -5.672 c -15.047,-0.699 -22.84,-2.808 -27.137,-16.816 l -34.66,-111.66 c -1.3396,-4.442 -1.3396,-6.313 -1.3396,-7.481 0,-2.101 0,-7.011 17.4566,-7.011 32.243,0 62.332,9.808 80.872,39.011 l 6.449,-1.172 -15.848,-45.129"
         inkscape:connector-curvature="0" />
      <path
         style="fill:#3f179c;fill-opacity:1;fill-rule:nonzero;stroke:none"
         id="path25-2"
         d="m 387.941,301.48 h -85.3 v 5.668 c 20.449,0.711 23.949,6.571 27.179,16.883 l 17.219,54.399 H 282.73 l -13.46,-42.442 c -1.879,-6.09 -4.571,-12.886 -4.571,-18.758 0,-8.671 5.653,-9.14 19.641,-10.082 v -5.668 h -79.649 v 5.668 c 9.957,1.411 16.95,2.352 21.528,16.883 l 32.832,104.848 c 0.801,2.332 2.961,10.031 2.961,12.59 0,7.703 -2.961,8.16 -19.641,10.261 v 5.668 h 85.301 v -5.668 c -15.07,-0.468 -22.871,-2.8 -27.184,-16.789 l -14.527,-46.39 h 64.309 l 12.652,40.328 c 0,0 2.687,10.031 2.687,13.051 0,7.461 -2.418,7.699 -19.64,9.8 v 5.668 h 80.191 v -5.668 c -10.769,-1.402 -17.23,-2.339 -21.801,-16.789 L 375.031,342.32 c -1.883,-6.332 -6.73,-19.699 -6.73,-25.32 0,-8.68 9.418,-9.609 19.64,-9.852 v -5.668"
         inkscape:connector-curvature="0" />
      <path
         style="fill:#3f179c;fill-opacity:1;fill-rule:nonzero;stroke:none"
         id="path27-9"
         d="m 589.969,410.449 -8.5,1.403 c 0.543,2.539 0.812,5.308 0.812,7.847 0,22.391 -12.422,36.699 -35.91,36.699 -43.473,0 -75.062,-59.949 -75.062,-101.238 0,-41.762 35.101,-41.762 38.882,-41.762 21.329,0 38.61,6.071 58.321,27.532 l 8.097,-5.129 C 562.84,317.84 538.27,300.93 503.172,300.93 468.09,300.93 430,319.012 430,361.23 c 0,51.782 44.551,103.282 110.16,103.282 23.219,0 38.34,-6.711 44.77,-6.711 5.851,0 8,3.008 10.691,6.711 h 8.07 l -13.722,-54.051"
         inkscape:connector-curvature="0" />
      <path
         style="fill:#3f179c;fill-opacity:1;fill-rule:nonzero;stroke:none"
         id="path29-1"
         d="m 760.48,414.051 c 0,-29.922 -39.199,-105.071 -95.71,-105.071 -19.391,0 -19.391,9.258 -19.391,11.758 0,37.391 39.601,123.59 84.98,123.59 25.993,0 30.121,-19.226 30.121,-30.277 z M 645.801,534.16 c 23.929,-0.359 26.808,-2.148 26.808,-10.359 0,-5 -3.711,-13.93 -6.597,-23.93 L 609.898,321.102 v -1.43 c 0,-7.84 31.774,-18.793 53.641,-18.793 63.109,0 131.77,61.519 131.77,117.801 0,26.011 -20.079,43.32 -48.86,43.32 -37.121,0 -63.109,-33.34 -76.73,-51.859 l -0.821,0.359 c 14.032,40.332 33,106.648 42.082,135.82 l -2.058,1.782 C 687.469,544.48 666.43,541.98 645.801,539.84 v -5.668"
         inkscape:connector-curvature="0" />
      <path
         style="fill:#cfeeee;fill-opacity:1;fill-rule:nonzero;stroke:none"
         id="path31-2"
         d="m 203.922,253.539 -6.453,-1.168 c -18.539,29.199 -48.629,39.008 -80.867,39.008 -17.4614,0 -17.4614,-4.91 -17.4614,-7.008 0,-1.172 0,-3.043 1.3394,-7.48 L 135.141,165.23 c 4.3,-14.019 12.089,-16.121 27.14,-16.82 v -5.672 H 77.1094 v 5.672 c 17.1992,2.102 19.6094,2.34 19.6094,9.809 0,3.043 -2.6876,13.082 -2.6876,13.082 L 60.9805,276.172 c -4.3008,13.316 -9.9414,15.418 -21.4922,16.816 v 5.672 H 188.059 l 15.851,-45.129"
         inkscape:connector-curvature="0" />
      <path
         style="fill:#cfeeee;fill-opacity:1;fill-rule:nonzero;stroke:none"
         id="path33-7"
         d="m 387.941,294.082 c -10.222,-0.23 -19.64,-1.172 -19.64,-9.852 0,-5.628 4.84,-18.992 6.73,-25.32 l 29.328,-92.629 c 4.571,-14.449 11.039,-15.383 21.801,-16.793 v -5.668 h -80.191 v 5.668 c 17.222,2.102 19.64,2.332 19.64,9.793 0,3.028 -2.687,13.051 -2.687,13.051 L 350.27,212.66 h -64.309 l 14.527,-46.39 c 4.301,-13.981 12.114,-16.321 27.184,-16.79 v -5.671 h -85.301 v 5.671 c 16.68,2.102 19.641,2.571 19.641,10.258 0,2.571 -2.16,10.262 -2.961,12.594 L 226.219,277.18 c -4.571,14.539 -11.571,15.48 -21.528,16.879 v 5.671 h 79.649 v -5.671 c -13.988,-0.938 -19.641,-1.411 -19.641,-10.079 0,-5.859 2.692,-12.66 4.571,-18.761 l 13.46,-42.438 h 64.309 l -17.219,54.391 c -3.23,10.316 -6.73,16.18 -27.179,16.879 v 5.668 h 85.3 v -5.668"
         inkscape:connector-curvature="0" />
      <path
         style="fill:#cfeeee;fill-opacity:1;fill-rule:nonzero;stroke:none"
         id="path35-0"
         d="m 603.691,136.73 h -8.07 c -2.691,3.7 -4.84,6.711 -10.691,6.711 -6.43,0 -21.551,-6.711 -44.77,-6.711 C 474.551,136.73 430,188.219 430,240 c 0,42.23 38.09,60.301 73.172,60.301 35.098,0 59.668,-16.91 73.437,-34.871 l -8.097,-5.129 c -19.711,21.461 -36.992,27.527 -58.321,27.527 -3.781,0 -38.882,0 -38.882,-41.758 0,-41.289 31.589,-101.242 75.062,-101.242 23.488,0 35.91,14.313 35.91,36.703 0,2.539 -0.269,5.309 -0.812,7.848 l 8.5,1.402 13.722,-54.051"
         inkscape:connector-curvature="0" />
      <path
         style="fill:#cfeeee;fill-opacity:1;fill-rule:nonzero;stroke:none"
         id="path37-9"
         d="m 730.359,156.898 c -45.371,0 -84.98,86.204 -84.98,123.59 0,2.5 0,11.75 19.391,11.75 56.511,0 95.71,-75.148 95.71,-105.07 0,-11.039 -4.128,-30.277 -30.121,-30.277 z M 645.801,61.3906 c 20.629,-2.1406 41.66,-4.6289 63.121,-8.2617 l 2.058,1.793 C 701.898,84.0898 682.93,150.41 668.898,190.738 l 0.821,0.364 c 13.609,-18.52 39.601,-51.864 76.73,-51.864 28.781,0 48.86,17.313 48.86,43.313 0,56.269 -68.661,117.801 -131.77,117.801 -21.859,0 -53.641,-10.954 -53.641,-18.793 v -1.43 l 56.114,-178.77 c 2.886,-9.9996 6.597,-18.9293 6.597,-23.9293 0,-8.2188 -2.89,-10 -26.808,-10.3594 v -5.6719"
         inkscape:connector-curvature="0" />
    </g>
  </g>
</svg>
